<svg xmlns="http://www.w3.org/2000/svg" width="26" height="26" viewBox="0 0 26 26"><path style="line-height:normal;text-indent:0;text-align:start;text-decoration-line:none;text-decoration-style:solid;text-decoration-color:#000;text-transform:none;block-progression:tb;isolation:auto;mix-blend-mode:normal" d="M 13.001953 0 C 5.8281634 0 -1.49e-005 5.8242469 0 12.998047 C -1.49e-005 20.171847 5.8281634 26 13.001953 26 C 20.175742 26 26.000015 20.171847 26 12.998047 C 26.000015 5.8242469 20.175742 0 13.001953 0 z M 13.001953 1 C 19.6353 1 25.000014 6.3647469 25 12.998047 C 25.000014 19.631347 19.6353 24.998047 13.001953 24.998047 C 6.3686044 24.998047 0.9999861 19.631347 1 12.998047 C 0.9999861 6.3647469 6.3686044 1 13.001953 1 z M 18.931641 5 C 18.8004 5 18.674838 5.0539844 18.582031 5.1464844 L 14.955078 8.7792969 L 13.84375 7.6855469 C 13.516459 7.3604469 12.961081 7.6136188 12.992188 8.0742188 L 13.238281 12.28125 C 13.253811 12.53415 13.456005 12.7355 13.708984 12.75 L 17.939453 12.998047 C 18.399021 13.025047 18.648219 12.469631 18.322266 12.144531 L 17.205078 11.029297 L 17.185547 11.009766 L 20.814453 7.3808594 C 21.009542 7.1855594 21.009542 6.8691281 20.814453 6.6738281 L 19.292969 5.1464844 C 19.197299 5.0504844 19.066939 4.998 18.931641 5 z M 8.0117188 13.001953 C 7.5745683 13.018953 7.3686505 13.549822 7.6796875 13.857422 L 8.7949219 14.972656 L 8.8144531 14.990234 L 5.1855469 18.621094 C 4.990458 18.816394 4.990458 19.132825 5.1855469 19.328125 L 6.7089844 20.853516 C 6.9045109 21.049916 7.2224423 21.049916 7.4179688 20.853516 L 11.044922 17.220703 L 12.158203 18.314453 C 12.484961 18.634953 13.034889 18.384434 13.007812 17.927734 L 12.761719 13.71875 C 12.746189 13.46585 12.543995 13.2645 12.291016 13.25 L 8.0625 13.001953 C 8.045584 13.001053 8.0286347 13.001053 8.0117188 13.001953 z " color="#000" font-family="sans-serif" font-weight="400" overflow="visible" white-space="normal"/></svg>